<?xml version="1.0" encoding="utf-8"?>
<!-- Generator: Adobe Illustrator 16.0.0, SVG Export Plug-In . SVG Version: 6.00 Build 0)  -->
<!DOCTYPE svg PUBLIC "-//W3C//DTD SVG 1.1//EN" "http://www.w3.org/Graphics/SVG/1.1/DTD/svg11.dtd">
<svg version="1.1" id="Layer_1" xmlns="http://www.w3.org/2000/svg" xmlns:xlink="http://www.w3.org/1999/xlink" x="0px" y="0px"
	 width="512px" height="512px" viewBox="0 0 512 512" enable-background="new 0 0 512 512" xml:space="preserve">
<g>
	<path fill="#00AEEF" d="M135.604,245.122c5.768,0,9.498-1.865,9.498-6.107c0-13.397-46.393-7.502-58.629-33.012v28.416l3.847-7.784
		C102.531,236.81,123.563,245.122,135.604,245.122z"/>
	<path fill="#00AEEF" d="M346.94,214.592c0,16.282,11.87,28.323,25.439,28.323c13.567,0,24.423-12.041,24.423-28.323
		c0-16.282-10.854-27.985-24.423-27.985C358.643,186.607,346.94,198.31,346.94,214.592z"/>
	<path fill="#00AEEF" d="M371.872,275.649c-37.822,0-65.297-25.779-65.297-61.228c0-35.278,27.475-60.549,65.297-60.549
		c23.515,0,43.022,9.837,54.423,25.714V74.593c0-16.568-13.432-30-30-30H116.473c-16.568,0-30,13.432-30,30v102.843
		c6.616-15.096,24.014-24.071,47.945-24.071c18.825,0,38.331,5.597,51.729,14.078l-14.246,29.85
		c-12.042-6.615-30.529-13.908-40.875-13.908c-4.411,0-7.293,1.357-7.293,4.92c0,14.925,61.565,5.596,61.565,48.676
		c0,26.457-23.236,38.16-50.033,38.16c-16.38,0-34.233-4.371-48.792-12.16v91.435c0,16.568,13.432,30,30,30h279.822
		c16.568,0,30-13.432,30-30V249.55C414.896,265.615,395.387,275.649,371.872,275.649z M297.582,273.954H195.479V155.061h100.578
		v29.851h-61.229v14.585h55.629v29.852h-55.629v14.756h62.755V273.954z"/>
</g>
<g>
	<path fill="#00AEEF" d="M110.886,409.326l-1.582,3.279c-1.745-1.015-3.94-1.721-5.285-1.721c-1.084,0-1.816,0.398-1.816,1.201
		c0,2.856,8.729,1.226,8.729,7.198c0,3.302-2.925,5.049-6.605,5.049c-2.761,0-5.593-1.037-7.551-2.644l1.628-3.232
		c1.699,1.486,4.247,2.478,5.97,2.478c1.32,0,2.147-0.495,2.147-1.439c0-2.927-8.731-1.181-8.731-7.031
		c0-3.045,2.618-4.979,6.584-4.979C106.758,407.485,109.186,408.218,110.886,409.326z"/>
	<path fill="#00AEEF" d="M117.43,410.978v3.279h7.879v3.305h-7.879v3.325h8.989v3.304h-13.189v-16.517h12.93v3.304H117.43z"/>
	<path fill="#00AEEF" d="M132.893,421.147l-1.203,3.043h-4.318l7.125-16.517h4.319l6.959,16.517h-4.482l-1.179-3.043H132.893z
		 M136.526,411.851l-2.407,6.109h4.767L136.526,411.851z"/>
	<path fill="#00AEEF" d="M154.823,419.542h-0.119h-3.185v4.648h-4.2v-16.517h7.385c4.365,0,6.866,2.076,6.866,5.756
		c0,2.526-1.062,4.344-2.996,5.31l3.468,5.451h-4.766L154.823,419.542z M154.704,416.238c1.816,0,2.878-0.921,2.878-2.664
		c0-1.724-1.062-2.597-2.878-2.597h-3.185v5.261H154.704z"/>
	<path fill="#00AEEF" d="M178.804,410.314l-2.432,2.882c-1.084-1.322-2.689-2.147-4.15-2.147c-2.622,0-4.603,2.076-4.603,4.789
		c0,2.761,1.981,4.859,4.603,4.859c1.391,0,2.996-0.754,4.15-1.933l2.455,2.594c-1.771,1.817-4.39,3.021-6.817,3.021
		c-4.979,0-8.686-3.658-8.686-8.494c0-4.767,3.8-8.352,8.824-8.352C174.604,407.533,177.151,408.617,178.804,410.314z"/>
	<path fill="#00AEEF" d="M191.791,424.19v-6.417h-6.843v6.417h-4.201v-16.517h4.201v6.796h6.843v-6.796h4.199v16.517H191.791z"/>
	<path fill="#00AEEF" d="M208.98,410.978v3.279h7.88v3.305h-7.88v3.325h8.99v3.304H204.78v-16.517h12.932v3.304H208.98z"/>
	<path fill="#00AEEF" d="M232.23,424.19l-7.598-10.17v10.17h-3.94v-16.517h3.705l7.621,10.191v-10.191h3.917v16.517H232.23z"/>
	<path fill="#00AEEF" d="M253.853,415.791v6.44c-1.771,1.252-4.555,2.147-6.868,2.147c-5.025,0-8.824-3.632-8.824-8.446
		c0-4.791,3.893-8.399,9.107-8.399c2.455,0,5.049,0.942,6.75,2.451l-2.361,2.855c-1.203-1.106-2.877-1.791-4.412-1.791
		c-2.714,0-4.791,2.121-4.791,4.884c0,2.807,2.101,4.931,4.837,4.931c0.849,0,1.936-0.308,2.925-0.803v-4.27H253.853z"/>
	<path fill="#00AEEF" d="M256.788,424.19v-16.517h4.199v16.517H256.788z"/>
	<path fill="#00AEEF" d="M275.832,424.19l-7.599-10.17v10.17h-3.94v-16.517h3.705l7.623,10.191v-10.191h3.916v16.517H275.832z"/>
	<path fill="#00AEEF" d="M287.051,410.978v3.279h7.879v3.305h-7.879v3.325h8.988v3.304h-13.188v-16.517h12.933v3.304H287.051z"/>
</g>
<g>
	<path fill="#00AEEF" d="M219.304,441.738c0,5.968-4.743,10.505-11.092,10.505c-6.32,0-11.061-4.505-11.061-10.505
		c0-5.971,4.741-10.391,11.061-10.391C214.561,431.348,219.304,435.795,219.304,441.738z M202.476,441.768
		c0,3.452,2.667,6.114,5.793,6.114c3.162,0,5.674-2.662,5.674-6.114c0-3.454-2.513-6.059-5.674-6.059
		C205.108,435.709,202.476,438.313,202.476,441.768z"/>
	<path fill="#00AEEF" d="M230.993,431.522c5.238,0,8.251,2.575,8.251,7.14c0,4.802-3.013,7.581-8.251,7.581h-3.717v5.766h-5.209
		v-20.486H230.993z M227.276,442.146h3.449c2.286,0,3.604-1.142,3.604-3.304c0-2.138-1.317-3.222-3.604-3.222h-3.449V442.146z"/>
	<path fill="#00AEEF" d="M251.459,435.709v16.3h-5.209v-16.3h-6.116v-4.216h17.5v4.216H251.459z"/>
	<path fill="#00AEEF" d="M259.867,452.009v-20.486h5.209v20.486H259.867z"/>
	<path fill="#00AEEF" d="M287.09,452.009l-0.029-13.317l-4.915,11.269h-3.397l-4.912-11.269v13.317h-4.656v-20.516h5.703
		l5.563,12.202l5.562-12.202h5.677v20.516H287.09z"/>
	<path fill="#00AEEF" d="M295.826,452.009v-20.486h5.212v20.486H295.826z"/>
	<path fill="#00AEEF" d="M310.874,447.882h11.122v4.127h-18.091v-3.336l10.977-13.023h-10.593v-4.127h17.532v3.336L310.874,447.882z
		"/>
	<path fill="#00AEEF" d="M329.558,448.235l-1.495,3.773h-5.354l8.839-20.486h5.357l8.632,20.486h-5.561l-1.463-3.773H329.558z
		 M334.062,436.704l-2.981,7.577h5.907L334.062,436.704z"/>
	<path fill="#00AEEF" d="M354.738,435.709v16.3h-5.212v-16.3h-6.116v-4.216h17.499v4.216H354.738z"/>
	<path fill="#00AEEF" d="M363.144,452.009v-20.486h5.212v20.486H363.144z"/>
	<path fill="#00AEEF" d="M393.266,441.738c0,5.968-4.744,10.505-11.093,10.505c-6.323,0-11.063-4.505-11.063-10.505
		c0-5.971,4.74-10.391,11.063-10.391C388.521,431.348,393.266,435.795,393.266,441.738z M376.435,441.768
		c0,3.452,2.667,6.114,5.799,6.114c3.159,0,5.675-2.662,5.675-6.114c0-3.454-2.516-6.059-5.675-6.059
		C379.069,435.709,376.435,438.313,376.435,441.768z"/>
	<path fill="#00AEEF" d="M410.338,452.009l-9.424-12.613v12.613h-4.889v-20.486h4.598l9.452,12.642v-12.642h4.86v20.486H410.338z"/>
</g>
</svg>
